<svg width="6" height="10" viewBox="0 0 6 10" fill="none" xmlns="http://www.w3.org/2000/svg">
<path d="M1.8637 1.1363C1.57081 0.843403 1.09594 0.843403 0.803044 1.1363C0.510151 1.42919 0.510151 1.90406 0.803044 2.19696L1.8637 1.1363ZM4.66671 4.99996L5.19704 5.53029C5.33769 5.38964 5.41671 5.19887 5.41671 4.99996C5.41671 4.80105 5.33769 4.61028 5.19704 4.46963L4.66671 4.99996ZM0.803044 7.80296C0.510151 8.09586 0.510151 8.57073 0.803044 8.86362C1.09594 9.15652 1.57081 9.15652 1.8637 8.86362L0.803044 7.80296ZM0.803044 2.19696L4.13638 5.53029L5.19704 4.46963L1.8637 1.1363L0.803044 2.19696ZM4.13638 4.46963L0.803044 7.80296L1.8637 8.86362L5.19704 5.53029L4.13638 4.46963Z" fill="#003459"/>
</svg>
